<?xml version="1.0" encoding="UTF-8"?>
<!-- The Cratis mark, from the Cratis Studio logo. -->
<svg version="1.1" xmlns="http://www.w3.org/2000/svg" viewBox="30 15 175 298">
<path d="M0 0 C1.30855041 2.61710083 1.16323439 4.60106276 1.20874023 7.53198242 C1.22803085 8.69046188 1.24732147 9.84894135 1.26719666 11.04252625 C1.32485201 16.35296083 1.374538 21.66322873 1.4050293 26.97387695 C1.42280804 29.77447606 1.4575676 32.57406161 1.50756836 35.37426758 C1.57953816 39.40983061 1.60202436 43.44430334 1.62109375 47.48046875 C1.64892441 48.72861862 1.67675507 49.97676849 1.70542908 51.26274109 C1.68248122 60.97484716 1.68248122 60.97484716 -1.71313477 65.14160156 C-4.30934224 67.61379044 -7.04211106 69.56242609 -10.2109375 71.25390625 C-11.19674805 71.79128418 -12.18255859 72.32866211 -13.19824219 72.88232422 C-14.24657227 73.43678223 -15.29490234 73.99124023 -16.375 74.5625 C-18.6182611 75.78318535 -20.86042036 77.00589739 -23.1015625 78.23046875 C-24.24399414 78.85099121 -25.38642578 79.47151367 -26.56347656 80.11083984 C-34.95721602 84.72513055 -43.19409815 89.6188606 -51.44042969 94.49023438 C-53.72908199 95.84019869 -56.02400224 97.17875452 -58.3203125 98.515625 C-59.50583831 99.2176873 -60.69079924 99.92070498 -61.875 100.625 C-62.84179688 101.19476563 -63.80859375 101.76453125 -64.8046875 102.3515625 C-67.28965886 104.21750185 -67.92191274 105.11300537 -69 108 C-69.19464188 110.48821475 -69.28360965 112.86390734 -69.2746582 115.35131836 C-69.27976913 116.08514236 -69.28488007 116.81896637 -69.29014587 117.57502747 C-69.30402674 119.99671625 -69.30308629 122.41811995 -69.30078125 124.83984375 C-69.30466898 126.52608852 -69.30900381 128.21233231 -69.31376648 129.89857483 C-69.32122542 133.4316831 -69.32093976 136.96469144 -69.31567383 140.49780273 C-69.30987928 145.02172193 -69.32681126 149.5452317 -69.3500185 154.06908321 C-69.36476199 157.55125819 -69.36562672 161.0333347 -69.36250877 164.51553535 C-69.36302167 166.18327203 -69.36825342 167.85101426 -69.37832069 169.51872063 C-69.3906801 171.85251218 -69.383897 174.18550796 -69.37231445 176.51928711 C-69.37995819 177.20568268 -69.38760193 177.89207825 -69.39547729 178.59927368 C-69.34837554 182.9007496 -68.58489125 185.55614001 -66 189 C-64.12030761 190.55100115 -64.12030761 190.55100115 -61.9140625 191.734375 C-60.66290649 192.45911011 -60.66290649 192.45911011 -59.38647461 193.19848633 C-58.01954468 193.9664856 -58.01954468 193.9664856 -56.625 194.75 C-54.63921174 195.89433835 -52.65354091 197.03888048 -50.66796875 198.18359375 C-49.59853027 198.79444824 -48.5290918 199.40530273 -47.42724609 200.03466797 C-41.86786998 203.22265612 -36.34242607 206.46819958 -30.81536865 209.71179199 C-28.99177433 210.78068724 -27.16632457 211.84634078 -25.34033203 212.91113281 C-21.8854854 214.92714828 -18.44335538 216.96441985 -15 219 C-14.09837128 219.5215567 -14.09837128 219.5215567 -13.17852783 220.0536499 C-11.38459591 221.09140009 -9.60002853 222.14387213 -7.81640625 223.19921875 C-6.7704126 223.80983154 -5.72441895 224.42044434 -4.64672852 225.04956055 C-1.71925756 227.20688602 -0.60181201 228.75934037 1 232 C1.38095093 234.82095337 1.38095093 234.82095337 1.38818359 237.93603516 C1.40236832 239.69278061 1.40236832 239.69278061 1.4168396 241.48501587 C1.40773056 243.36801895 1.40773056 243.36801895 1.3984375 245.2890625 C1.40274277 247.23212784 1.40274277 247.23212784 1.40713501 249.21444702 C1.41154727 251.94971504 1.40516112 254.68468824 1.39111328 257.41992188 C1.37398752 260.92509621 1.38389006 264.42958307 1.40183067 267.93473244 C1.4152737 271.28206438 1.40586523 274.62921102 1.3984375 277.9765625 C1.40451019 279.23594635 1.41058289 280.4953302 1.4168396 281.7928772 C1.40265488 283.54016617 1.40265488 283.54016617 1.38818359 285.32275391 C1.38579681 286.34913971 1.38341003 287.37552551 1.38095093 288.43301392 C1 291 1 291 -0.34091187 292.84799194 C-2 294 -2 294 -4.93359375 294.109375 C-10.85782899 292.95025181 -15.95946333 289.30709627 -21.0625 286.25 C-22.22383965 285.56545687 -23.38579603 284.88195903 -24.54833984 284.19946289 C-26.91104059 282.80965692 -29.26962484 281.41325879 -31.62451172 280.01025391 C-34.66302955 278.20068094 -37.70681361 276.40055142 -40.75390625 274.60546875 C-44.34562526 272.48838807 -47.93369445 270.36530796 -51.51953125 268.23828125 C-57.26544251 264.83540309 -63.03877449 261.48038907 -68.8125 258.125 C-78.24445824 252.64007376 -87.61723541 247.06232881 -96.95141602 241.41259766 C-101.80203767 238.48402187 -106.66497834 235.60243235 -111.62109375 232.85546875 C-112.49080811 232.36973389 -113.36052246 231.88399902 -114.2565918 231.38354492 C-115.85589713 230.49612073 -117.46234196 229.62137452 -119.07739258 228.76293945 C-119.78919678 228.36679443 -120.50100098 227.97064941 -121.234375 227.5625 C-122.15041504 227.06943359 -122.15041504 227.06943359 -123.08496094 226.56640625 C-127.37670095 223.0559774 -129.66416008 220.29422077 -130.47103882 214.78219604 C-130.67802444 210.65847784 -130.71933612 206.56119258 -130.70703125 202.43359375 C-130.72034693 200.86278398 -130.73580968 199.29199114 -130.75326538 197.72122192 C-130.79387251 193.50116764 -130.80389236 189.28155641 -130.8074913 185.06132889 C-130.81586608 180.6741613 -130.85064538 176.28719824 -130.88208008 171.90014648 C-130.93535681 163.86265877 -130.96255989 155.82531533 -130.97911167 147.78767681 C-130.99378592 141.20716599 -131.02894766 134.62696674 -131.07320499 128.04659557 C-131.12118097 120.88619794 -131.1537984 113.72580581 -131.17943954 106.56529617 C-131.18747391 104.56898383 -131.19842276 102.57268393 -131.2093811 100.5763855 C-131.22693338 96.88548796 -131.23088695 93.19483988 -131.23046875 89.50390625 C-131.23758881 88.43141632 -131.24470886 87.35892639 -131.25204468 86.25393677 C-131.21452375 73.89474548 -131.21452375 73.89474548 -127.50732422 69.04882812 C-121.49926391 64.06003532 -114.94135799 60.27274468 -108.125 56.5 C-106.87961055 55.80119449 -105.63482971 55.10130336 -104.390625 54.40039062 C-101.83806558 52.9629031 -99.28345558 51.52916495 -96.72753906 50.09765625 C-91.12152527 46.95085194 -85.56222156 43.72336562 -80 40.5 C-68.15921613 33.65679758 -56.28863821 26.86645729 -44.41009521 20.08911133 C-39.98708883 17.56498647 -35.56735342 15.03518391 -31.1484375 12.50390625 C-29.22170557 11.40078796 -27.29491635 10.29776982 -25.36810303 9.1947937 C-24.13371989 8.48790801 -22.89954442 7.78065955 -21.66558838 7.07302856 C-19.95470688 6.09197123 -18.24299626 5.11236023 -16.53125 4.1328125 C-15.55736328 3.57480957 -14.58347656 3.01680664 -13.58007812 2.44189453 C-12.72865234 1.96606934 -11.87722656 1.49024414 -11 1 C-10.30197266 0.60022949 -9.60394531 0.20045898 -8.88476562 -0.21142578 C-5.79180269 -1.50550224 -3.18220357 -0.72049892 0 0 Z " fill="currentColor" transform="translate(162,17)"/>
<path d="M0 0 C0.9597876 0.54833496 1.9195752 1.09666992 2.90844727 1.66162109 C3.97772461 2.26619141 5.04700195 2.87076172 6.14868164 3.49365234 C7.24631836 4.13431641 8.34395508 4.77498047 9.47485352 5.43505859 C10.56862305 6.05251953 11.66239258 6.66998047 12.78930664 7.30615234 C28.271318 16.16100532 28.271318 16.16100532 32.03735352 21.81005859 C32.31150818 23.73165894 32.31150818 23.73165894 32.34375 25.92675781 C32.3597374 26.75126434 32.37572479 27.57577087 32.39219666 28.42526245 C32.39755936 29.31279205 32.40292206 30.20032166 32.40844727 31.11474609 C32.41747574 32.03087677 32.42650421 32.94700745 32.43580627 33.89089966 C32.45031437 35.8292514 32.4591969 37.76765217 32.46289062 39.70605469 C32.47478239 42.6673463 32.52395744 45.6265509 32.57446289 48.58740234 C32.58392778 50.47150676 32.5911625 52.35562398 32.59594727 54.23974609 C32.61547958 55.12322723 32.6350119 56.00670837 32.65513611 56.91696167 C32.62392479 61.18347394 32.50696941 63.18608264 29.87963867 66.67700195 C26.99756147 68.83992143 24.13566621 70.72904656 21.00219727 72.50927734 C19.86331055 73.16089844 18.72442383 73.81251953 17.55102539 74.48388672 C16.35901759 75.15519856 15.16695982 75.82642169 13.97485352 76.49755859 C12.77848226 77.17978683 11.58251489 77.86272383 10.38696289 78.54638672 C-3.57281278 86.49515417 -3.57281278 86.49515417 -9.96264648 85.81005859 C-13.00971786 84.59064659 -15.77138436 82.98678042 -18.58764648 81.31005859 C-19.37091309 80.85735596 -20.15417969 80.40465332 -20.96118164 79.93823242 C-23.30403697 78.57694692 -25.63336209 77.19439695 -27.96264648 75.81005859 C-29.26948151 75.05275962 -30.57673841 74.29618794 -31.88452148 73.54052734 C-42.82035204 67.09464749 -42.82035204 67.09464749 -45.96264648 60.81005859 C-46.09827356 58.03615748 -46.17536612 55.28861399 -46.20092773 52.51318359 C-46.20899948 51.68679382 -46.21707123 50.86040405 -46.22538757 50.00897217 C-46.2392302 48.25714212 -46.24995156 46.50528507 -46.2578125 44.75341797 C-46.27499065 42.08427163 -46.31886938 39.41637528 -46.36303711 36.74755859 C-46.37316731 35.04444269 -46.38168239 33.34131627 -46.38842773 31.63818359 C-46.40593582 30.8442218 -46.42344391 30.05026001 -46.44148254 29.23223877 C-46.42104305 23.96525277 -45.54563998 20.91863256 -41.96264648 16.81005859 C-39.21704102 14.79956055 -39.21704102 14.79956055 -36.09545898 13.04833984 C-34.96237305 12.40445313 -33.82928711 11.76056641 -32.66186523 11.09716797 C-31.47056786 10.43876781 -30.27916071 9.78056624 -29.08764648 9.12255859 C-27.90334155 8.45389477 -26.71974063 7.78398242 -25.53686523 7.11279297 C-22.35749641 5.32101474 -19.17388191 3.5440631 -15.96264648 1.81005859 C-14.99053223 1.24569092 -14.01841797 0.68132324 -13.0168457 0.09985352 C-8.32638256 -1.88093919 -4.72439124 -1.89754289 0 0 Z " fill="currentColor" transform="translate(169.962646484375,121.18994140625)"/>
</svg>
